<svg width="26" height="14" viewBox="0 0 26 14" fill="none" xmlns="http://www.w3.org/2000/svg">
<path d="M23.8418 13.5H2.15817C0.968627 13.5 0 12.5795 0 11.4491V2.55093C0 1.4205 0.968627 0.5 2.15817 0.5H23.8418C25.0314 0.5 26 1.4205 26 2.55093V11.4491C26 12.5795 25.0314 13.5 23.8418 13.5Z" fill="url(#paint0_linear)"/>
<path d="M12.4734 2.44629H10.7061V11.837H12.4734V2.44629Z" fill="white"/>
<path d="M15.7449 5.61133H13.9775V11.8287H15.7449V5.61133Z" fill="white"/>
<path d="M23.6461 11.8289L20.9951 8.54257L23.4337 5.61151H21.352L19.0154 8.45375V2.44629H17.248V11.8289H19.0154V8.63946L21.352 11.8289H23.6461Z" fill="white"/>
<path d="M6.21129 5.54691C5.642 5.54691 5.09821 5.68418 4.63089 5.92642V2.44629H2.87207V8.72828C2.87207 10.4805 4.36749 11.9096 6.21978 11.9096C8.07207 11.9096 9.56749 10.4885 9.56749 8.72828C9.56749 6.96803 8.06357 5.54691 6.21129 5.54691ZM6.21129 10.2301C5.33612 10.2301 4.63089 9.55996 4.63089 8.72828C4.63089 7.8966 5.33612 7.22642 6.21129 7.22642C7.08645 7.22642 7.79168 7.8966 7.79168 8.72828C7.79168 9.55996 7.08645 10.2301 6.21129 10.2301Z" fill="white"/>
<path d="M7.93615 4.96536C8.80429 4.96536 9.50805 4.29657 9.50805 3.47157C9.50805 2.64658 8.80429 1.97778 7.93615 1.97778C7.06802 1.97778 6.36426 2.64658 6.36426 3.47157C6.36426 4.29657 7.06802 4.96536 7.93615 4.96536Z" fill="url(#paint1_radial)"/>
<defs>
<linearGradient id="paint0_linear" x1="13" y1="13.5" x2="13" y2="0.5" gradientUnits="userSpaceOnUse">
<stop stop-color="#262626"/>
<stop offset="1"/>
</linearGradient>
<radialGradient id="paint1_radial" cx="0" cy="0" r="1" gradientUnits="userSpaceOnUse" gradientTransform="translate(6.65598 1.89973) scale(5.15351 4.89743)">
<stop stop-color="#FF0000"/>
<stop offset="0.495" stop-color="#E83E49"/>
<stop offset="1" stop-color="#FF00FF"/>
</radialGradient>
</defs>
</svg>
