<svg width="48" height="21" viewBox="0 0 48 21" fill="none" xmlns="http://www.w3.org/2000/svg">
<g clip-path="url(#clip0)">
<path fill-rule="evenodd" clip-rule="evenodd" d="M30.5825 16.2982C29.7202 16.5334 28.6256 16.6343 27.6637 16.6343C25.176 16.6343 23.5508 15.3234 23.5508 12.9368C23.5508 10.6511 25.0765 9.1721 27.2988 9.1721C27.7964 9.1721 28.3271 9.23933 28.6588 9.4074V6.11328H30.5825V16.2982ZM28.6588 11.0881C28.3602 10.9536 27.929 10.8528 27.4647 10.8528C26.3038 10.8528 25.5077 11.5923 25.5077 12.836C25.5077 14.1805 26.3369 14.9536 27.73 14.9536C27.9622 14.9536 28.3602 14.9536 28.6588 14.8864V11.0881ZM46.4372 16.2982C45.5748 16.5334 44.4802 16.6343 43.4852 16.6343C41.0307 16.6343 39.3722 15.3234 39.3722 12.9368C39.3722 10.6511 40.898 9.1721 43.1203 9.1721C43.651 9.1721 44.1485 9.23933 44.4802 9.4074V6.11328H46.4372V16.2982ZM44.4802 11.0881C44.1817 10.9536 43.7837 10.8528 43.3193 10.8528C42.1252 10.8528 41.3624 11.5923 41.3624 12.836C41.3624 14.1805 42.2247 14.9536 43.5847 14.9536C43.8168 14.9536 44.1817 14.9536 44.5134 14.8864V11.0881H44.4802ZM33.6341 11.0881C33.9657 10.9536 34.3969 10.92 34.795 10.92C35.989 10.92 36.8182 11.5923 36.8182 12.836C36.8182 14.2813 35.8895 14.9536 34.6955 14.9872V16.6679H34.795C37.3158 16.6679 38.8084 15.2898 38.8084 12.8024C38.8084 10.5503 37.2163 9.20572 34.8613 9.20572C33.6672 9.20572 32.5063 9.47463 31.7103 9.81076V19.3906H33.6672L33.6341 11.0881Z" fill="#3F3F42"/>
<path fill-rule="evenodd" clip-rule="evenodd" d="M16.4199 4.49976L16.7516 4.8695L16.9175 4.76866L16.4199 4.49976Z" fill="#DC0032"/>
<path fill-rule="evenodd" clip-rule="evenodd" d="M15.9219 4.26465L16.5521 5.00414L16.7843 4.86969L16.5521 4.60078C16.5189 4.56717 15.9219 4.26465 15.9219 4.26465Z" fill="#DC0032"/>
<path fill-rule="evenodd" clip-rule="evenodd" d="M15.4248 3.99561L16.3535 5.07124L16.5857 4.93678L16.055 4.29813L15.4248 3.99561Z" fill="#DC0032"/>
<path fill-rule="evenodd" clip-rule="evenodd" d="M14.9609 3.72705L16.1882 5.17243L16.4204 5.03798L15.558 4.02957L14.9609 3.72705ZM17.3159 6.28167L17.1832 6.3489L17.3159 6.51697V6.28167Z" fill="#DC0032"/>
<path fill-rule="evenodd" clip-rule="evenodd" d="M14.4961 3.45825L16.0219 5.27338L16.254 5.13892L15.0931 3.76077L14.4961 3.45825ZM17.2491 6.31539L17.0169 6.44985L17.3154 6.81959V6.44985L17.2491 6.31539Z" fill="#DC0032"/>
<path fill-rule="evenodd" clip-rule="evenodd" d="M13.998 3.18896L15.8555 5.37384L16.0877 5.23938L14.5951 3.5251L13.998 3.18896ZM17.0827 6.41585L16.8506 6.55031L17.3149 7.12174V6.75199C17.3149 6.75199 17.0827 6.41585 17.0827 6.41585Z" fill="#DC0032"/>
<path fill-rule="evenodd" clip-rule="evenodd" d="M13.501 2.95386L15.6569 5.50848L15.8891 5.37402L14.098 3.28999C14.098 3.25638 13.501 2.95386 13.501 2.95386ZM16.8842 6.5505L16.652 6.68495L17.3154 7.45806V7.08831L16.8842 6.5505Z" fill="#DC0032"/>
<path fill-rule="evenodd" clip-rule="evenodd" d="M13.0371 2.68481L15.4916 5.57557L15.7238 5.44112L13.6341 2.98734L13.0371 2.68481ZM16.7188 6.6512L16.4867 6.78566L17.3159 7.76044V7.3907L16.7188 6.6512Z" fill="#DC0032"/>
<path fill-rule="evenodd" clip-rule="evenodd" d="M12.5391 2.41577L15.3252 5.67628L15.5574 5.54182L13.1693 2.71829C13.1361 2.75191 12.5391 2.41577 12.5391 2.41577ZM16.5193 6.75191L16.3203 6.88636L17.3485 8.06283V7.69308L16.5193 6.75191Z" fill="#DC0032"/>
<path fill-rule="evenodd" clip-rule="evenodd" d="M12.042 2.14697L15.1267 5.81084L15.3589 5.67638L12.639 2.48311L12.042 2.14697ZM16.3539 6.85285L16.1217 6.98731L17.3158 8.39907V8.02932C17.3158 7.99571 16.3539 6.85285 16.3539 6.85285Z" fill="#DC0032"/>
<path fill-rule="evenodd" clip-rule="evenodd" d="M11.5439 1.87842L14.9603 5.87842L15.1925 5.74396L12.1742 2.21455L11.5439 1.87842ZM16.1876 6.95405L15.9554 7.0885L17.3153 8.70195V8.3322L16.1876 6.95405Z" fill="#DC0032"/>
<path fill-rule="evenodd" clip-rule="evenodd" d="M11.0791 1.64258L14.794 6.01233L15.0262 5.87787L11.7093 1.97871L11.0791 1.64258ZM16.0212 7.05434L15.7891 7.1888L17.3148 9.03754V8.63417C17.3148 8.60056 16.0212 7.05434 16.0212 7.05434Z" fill="#DC0032"/>
<path fill-rule="evenodd" clip-rule="evenodd" d="M10.6152 1.37427L14.6286 6.11376L14.8608 5.97931L11.2123 1.7104C11.2123 1.67679 10.6152 1.37427 10.6152 1.37427ZM15.8227 7.15578L15.5905 7.29023L17.3153 9.34065V8.97091C17.3153 8.93729 15.8227 7.15578 15.8227 7.15578Z" fill="#DC0032"/>
<path fill-rule="evenodd" clip-rule="evenodd" d="M10.1182 1.07129L14.4301 6.21415L14.6623 6.07969L10.7152 1.44104L10.1182 1.07129ZM15.6573 7.25616L15.4252 7.39062L17.3158 9.64272V9.23936L15.6573 7.25616Z" fill="#DC0032"/>
<path fill-rule="evenodd" clip-rule="evenodd" d="M9.62012 0.836182L14.2637 6.31517L14.4959 6.18072L10.2503 1.17232L9.62012 0.836182ZM15.491 7.35719L15.2588 7.49164L17.3152 9.94543V9.54206L15.491 7.35719Z" fill="#DC0032"/>
<path fill-rule="evenodd" clip-rule="evenodd" d="M9.15625 0.567139L14.0984 6.38226L14.3306 6.24781L9.78645 0.86966L9.15625 0.567139ZM15.2925 7.45789L15.0603 7.59235L17.3157 10.2478V9.87806L15.2925 7.45789Z" fill="#DC0032"/>
<path fill-rule="evenodd" clip-rule="evenodd" d="M8.82422 0.5L13.899 6.51681L14.1312 6.38235L9.25541 0.634454L9.12274 0.567227C9.0564 0.533613 8.95689 0.5 8.82422 0.5ZM15.1263 7.55883L14.8941 7.69328L17.3154 10.5504V10.1807C17.3154 10.1471 15.1263 7.55883 15.1263 7.55883Z" fill="#DC0032"/>
<path fill-rule="evenodd" clip-rule="evenodd" d="M8.82398 0.5C8.75764 0.5 8.65813 0.533613 8.5918 0.533613L13.7329 6.61765L13.9651 6.48319L8.89031 0.5C8.85715 0.5 8.85715 0.5 8.82398 0.5ZM14.9602 7.65966L14.728 7.79412L17.3152 10.8866V10.4832C17.3152 10.4496 14.9602 7.65966 14.9602 7.65966Z" fill="#DC0032"/>
<path fill-rule="evenodd" clip-rule="evenodd" d="M8.6589 0.533691C8.62574 0.567305 8.5594 0.567305 8.52623 0.600918L8.39355 0.668145L13.5347 6.75218L13.7669 6.61773C13.8 6.58411 8.6589 0.533691 8.6589 0.533691ZM14.7951 7.76058L14.5629 7.89504L17.3159 11.1555V10.7858L14.7951 7.76058Z" fill="#DC0032"/>
<path fill-rule="evenodd" clip-rule="evenodd" d="M8.45972 0.60083L8.22754 0.735284L13.3687 6.81932L13.6009 6.68486L8.45972 0.60083ZM14.5959 7.86133L14.3637 7.99579L17.3158 11.458V11.0882L14.5959 7.86133Z" fill="#DC0032"/>
<path fill-rule="evenodd" clip-rule="evenodd" d="M8.26054 0.701904L8.06152 0.836358L13.2027 6.92039L13.4348 6.78594L8.26054 0.701904ZM14.4299 7.96241L14.1977 8.09686L17.3156 11.7943V11.4246L14.4299 7.96241Z" fill="#DC0032"/>
<path fill-rule="evenodd" clip-rule="evenodd" d="M8.09448 0.802246L7.8623 0.9367L13.0034 7.02073L13.2356 6.88628L8.09448 0.802246ZM14.2307 8.06275L13.9985 8.1972L17.3154 12.0964V11.7266L14.2307 8.06275Z" fill="#DC0032"/>
<path fill-rule="evenodd" clip-rule="evenodd" d="M7.92847 0.90332L7.69629 1.03777L12.8374 7.12181L13.0696 6.98735L7.92847 0.90332ZM14.0647 8.16382L13.8325 8.29828L17.3152 12.3991V12.0294L14.0647 8.16382Z" fill="#DC0032"/>
<path fill-rule="evenodd" clip-rule="evenodd" d="M7.73023 1.00415L7.49805 1.1386L12.6724 7.22264L12.9045 7.08818L7.73023 1.00415ZM13.8996 8.26465L13.6674 8.39911L17.316 12.7016V12.3319L13.8996 8.26465Z" fill="#DC0032"/>
<path fill-rule="evenodd" clip-rule="evenodd" d="M7.56421 1.07129L7.33203 1.20574L12.5063 7.28978L12.7385 7.15532C12.7385 7.18894 7.56421 1.07129 7.56421 1.07129ZM13.7336 8.39902L13.5014 8.53347L17.3158 13.0377V12.6679L13.7336 8.39902Z" fill="#DC0032"/>
<path fill-rule="evenodd" clip-rule="evenodd" d="M7.36499 1.17212L7.13281 1.30657L12.3071 7.42422L12.5393 7.28977L7.36499 1.17212ZM13.5344 8.49985L13.3022 8.6343L17.3156 13.3738V12.9368L13.5344 8.49985Z" fill="#DC0032"/>
<path fill-rule="evenodd" clip-rule="evenodd" d="M7.19898 1.27319L6.9668 1.40765L12.1411 7.52529L12.3733 7.39084L7.19898 1.27319ZM13.3683 8.60092L13.1362 8.73538L17.3154 13.6766V13.2732L13.3683 8.60092Z" fill="#DC0032"/>
<path fill-rule="evenodd" clip-rule="evenodd" d="M7.03296 1.37427L6.80078 1.50872L11.9751 7.62637L12.2073 7.49191L7.03296 1.37427ZM13.2023 8.702L12.9702 8.83645L17.3152 13.9457V13.5759L13.2023 8.702Z" fill="#DC0032"/>
<path fill-rule="evenodd" clip-rule="evenodd" d="M6.83378 1.47461L6.63477 1.60906L11.8091 7.72671L12.0413 7.59226C12.0081 7.59226 6.83378 1.47461 6.83378 1.47461ZM13.0032 8.80234L12.8041 8.90318L17.3482 14.2813V13.878C17.3151 13.878 13.0032 8.80234 13.0032 8.80234Z" fill="#DC0032"/>
<path fill-rule="evenodd" clip-rule="evenodd" d="M6.66773 1.57544L6.43555 1.70989L11.6099 7.82754L11.842 7.69309L6.66773 1.57544ZM12.8371 8.90317L12.6049 9.03763L17.3149 14.6175V14.2477C17.3149 14.1805 12.8371 8.90317 12.8371 8.90317Z" fill="#DC0032"/>
<path fill-rule="evenodd" clip-rule="evenodd" d="M6.46949 1.67651L6.2373 1.81097L11.4448 7.96223L11.677 7.82777C11.677 7.79416 6.46949 1.67651 6.46949 1.67651ZM12.672 9.00424L12.4398 9.1387L17.3156 14.9202V14.5505L12.672 9.00424Z" fill="#DC0032"/>
<path fill-rule="evenodd" clip-rule="evenodd" d="M6.30347 1.77734L6.07129 1.9118L11.3119 8.09667C11.3451 8.06306 11.3451 8.02944 11.3783 8.02944L11.511 7.96222C11.511 7.89499 6.30347 1.77734 6.30347 1.77734ZM12.506 9.10507L12.2738 9.20591L17.2823 15.1219C17.3155 15.0547 17.3155 14.9874 17.3155 14.9538V14.7857L12.506 9.10507Z" fill="#DC0032"/>
<path fill-rule="evenodd" clip-rule="evenodd" d="M6.13745 1.87842L5.90527 2.01287L11.2454 8.3322V8.23136C11.2454 8.16413 11.2786 8.09691 11.3118 8.02968L6.13745 1.87842ZM12.3068 9.20615L12.141 9.30699C12.1078 9.30699 12.1078 9.3406 12.0746 9.3406L17.1826 15.3574C17.249 15.2902 17.2821 15.1893 17.3153 15.1221L12.3068 9.20615Z" fill="#DC0032"/>
<path fill-rule="evenodd" clip-rule="evenodd" d="M5.93823 1.97876L5.70605 2.11321L11.2452 8.63422V8.23086L5.93823 1.97876ZM11.7428 9.20565L17.0497 15.4914C17.1161 15.4578 17.1824 15.3569 17.2156 15.3233L12.1408 9.30649C12.0744 9.34011 11.9418 9.34011 11.8754 9.30649L11.7428 9.20565Z" fill="#DC0032"/>
<path fill-rule="evenodd" clip-rule="evenodd" d="M5.77222 2.07983L5.54004 2.18067L16.8837 15.5588L17.0496 15.4916C17.0827 15.458 17.0827 15.458 17.1159 15.4244L11.8753 9.30673H11.8421L11.3777 9.03782C11.3446 9.0042 11.3114 8.97059 11.2782 8.93698C11.245 8.86975 11.245 8.83614 11.2119 8.80252V8.56723C11.245 8.53362 5.77222 2.07983 5.77222 2.07983Z" fill="#DC0032"/>
<path fill-rule="evenodd" clip-rule="evenodd" d="M5.57398 2.18066L5.3418 2.31512L16.6855 15.6933L16.9177 15.5588L5.57398 2.18066Z" fill="#DC0032"/>
<path fill-rule="evenodd" clip-rule="evenodd" d="M5.40796 2.2478L5.17578 2.38226L16.5526 15.794L16.7848 15.6596L5.40796 2.2478Z" fill="#DC0032"/>
<path fill-rule="evenodd" clip-rule="evenodd" d="M5.24191 2.34863L4.97656 2.48309L16.3534 15.8949L16.5856 15.7604L5.24191 2.34863Z" fill="#DC0032"/>
<path fill-rule="evenodd" clip-rule="evenodd" d="M5.04273 2.44971L4.81055 2.58416L16.1874 15.9959L16.4196 15.8615L5.04273 2.44971Z" fill="#DC0032"/>
<path fill-rule="evenodd" clip-rule="evenodd" d="M4.84354 2.55054L4.64453 2.68499L16.0214 16.1304L16.2536 15.9959L4.84354 2.55054Z" fill="#DC0032"/>
<path fill-rule="evenodd" clip-rule="evenodd" d="M4.67749 2.65112L4.44531 2.78558L15.8222 16.231L16.0543 16.0965L4.67749 2.65112Z" fill="#DC0032"/>
<path fill-rule="evenodd" clip-rule="evenodd" d="M4.47925 2.75195L4.24707 2.88641L15.6239 16.3318L15.8561 16.1973L4.47925 2.75195Z" fill="#DC0032"/>
<path fill-rule="evenodd" clip-rule="evenodd" d="M4.31324 2.85303L4.08105 2.98748L15.4579 16.4329L15.6901 16.2984L4.31324 2.85303Z" fill="#DC0032"/>
<path fill-rule="evenodd" clip-rule="evenodd" d="M4.14722 2.95386L3.91504 3.08831L15.2919 16.5337L15.5241 16.3992L4.14722 2.95386Z" fill="#DC0032"/>
<path fill-rule="evenodd" clip-rule="evenodd" d="M3.948 3.05469L3.71582 3.18914L9.25499 9.71015L9.42083 9.8446C9.48717 9.87822 9.58668 9.97906 9.58668 10.0799V10.1135L15.0927 16.6345L15.3249 16.5001L3.948 3.05469Z" fill="#DC0032"/>
<path fill-rule="evenodd" clip-rule="evenodd" d="M3.78199 3.15527L3.5498 3.25611L8.75728 9.40737L9.42066 9.77712L3.78199 3.15527ZM9.5865 10.0124C9.5865 10.046 9.61967 10.046 9.61967 10.0796V10.4158L14.9267 16.7015L15.1588 16.567C15.1588 16.6006 9.5865 10.0124 9.5865 10.0124Z" fill="#DC0032"/>
<path fill-rule="evenodd" clip-rule="evenodd" d="M3.58378 3.2561L3.38477 3.35694L8.22739 9.10484L8.89076 9.47459L3.58378 3.2561ZM9.62047 10.3149V10.6847L14.7948 16.8023L15.027 16.6679L9.62047 10.3149Z" fill="#DC0032"/>
<path fill-rule="evenodd" clip-rule="evenodd" d="M3.41773 3.35718L3.18555 3.45802L7.72965 8.80256L8.35986 9.1723L3.41773 3.35718ZM9.62027 10.6177V11.021L14.5956 16.9034L14.8277 16.7689L9.62027 10.6177Z" fill="#DC0032"/>
<path fill-rule="evenodd" clip-rule="evenodd" d="M3.25171 3.42432L3.01953 3.55877L7.23195 8.53356L7.86216 8.90331L3.25171 3.42432ZM9.6201 10.9537V11.3235L14.4296 17.0041L14.6617 16.8697L9.6201 10.9537Z" fill="#DC0032"/>
<path fill-rule="evenodd" clip-rule="evenodd" d="M3.0535 3.52539L2.85449 3.65984L6.70206 8.23127L7.33226 8.60102L3.0535 3.52539ZM9.6209 11.2565V11.6262L14.2645 17.1052L14.4967 16.9708L9.6209 11.2565Z" fill="#DC0032"/>
<path fill-rule="evenodd" clip-rule="evenodd" d="M2.88745 3.62622L2.65527 3.76067L6.17115 7.92874L6.80136 8.29849L2.88745 3.62622ZM9.62069 11.559V11.9624L14.0653 17.2397L14.2975 17.1052L9.62069 11.559Z" fill="#DC0032"/>
<path fill-rule="evenodd" clip-rule="evenodd" d="M2.68827 3.72705L2.48926 3.8615L5.67345 7.62621L6.30365 7.99596L2.68827 3.72705ZM9.62052 11.8615V12.2649L13.9324 17.3405L14.1646 17.206C14.1315 17.206 9.62052 11.8615 9.62052 11.8615Z" fill="#DC0032"/>
<path fill-rule="evenodd" clip-rule="evenodd" d="M2.52222 3.82764L2.29004 3.96209L5.14254 7.32343L5.80592 7.69318L2.52222 3.82764ZM9.62031 12.1638V12.5335L13.7332 17.4075L13.9322 17.3066L9.62031 12.1638Z" fill="#DC0032"/>
<path fill-rule="evenodd" clip-rule="evenodd" d="M2.3562 3.92847L2.12402 4.06292L4.64484 7.0209L5.30822 7.39065C5.27505 7.39065 2.3562 3.92847 2.3562 3.92847ZM7.56368 10.4495L8.09438 11.0545V10.8192C8.09438 10.7856 8.06121 10.7184 8.02805 10.6848L7.56368 10.4495ZM9.62014 12.4663V12.8696L13.5672 17.5419L13.7994 17.4075L9.62014 12.4663Z" fill="#DB0032"/>
<path fill-rule="evenodd" clip-rule="evenodd" d="M2.15699 3.99561L1.9248 4.13006L4.08077 6.71829L4.74414 7.08804C4.77731 7.08804 2.15699 3.99561 2.15699 3.99561ZM7.03278 10.1469L8.06101 11.357V10.9872L7.69615 10.5502L7.03278 10.1469ZM9.61994 12.8023V13.1721L13.368 17.6427L13.6002 17.5082L9.61994 12.8023Z" fill="#DC0032"/>
<path fill-rule="evenodd" clip-rule="evenodd" d="M1.99195 4.09668L1.75977 4.23113L3.61721 6.41601L4.24742 6.78576L1.99195 4.09668ZM6.53605 9.87819L8.09498 11.6933V11.3236L7.16626 10.2479L6.53605 9.87819ZM9.62074 13.1051V13.4748L13.203 17.7437L13.4351 17.6093C13.402 17.6093 9.62074 13.1051 9.62074 13.1051Z" fill="#DC0032"/>
<path fill-rule="evenodd" clip-rule="evenodd" d="M1.79273 4.19751L1.56055 4.33196L3.08631 6.11348L3.71651 6.48322C3.74968 6.48322 1.79273 4.19751 1.79273 4.19751ZM6.03832 9.57566L8.09477 11.9958V11.6261L6.66852 9.94541L6.03832 9.57566ZM9.62053 13.4412V13.811L13.0369 17.8446L13.2691 17.7101L9.62053 13.4412Z" fill="#DC0032"/>
<path fill-rule="evenodd" clip-rule="evenodd" d="M1.62671 4.29834L1.39453 4.43279L2.55543 5.81094L3.18564 6.18069C3.21881 6.18069 1.62671 4.29834 1.62671 4.29834ZM5.50745 9.27313L8.06143 12.2983V11.9286L6.13765 9.67649L5.50745 9.27313ZM9.62036 13.7437V14.1135L12.8709 17.9454L13.1031 17.8109C13.0699 17.8109 9.62036 13.7437 9.62036 13.7437Z" fill="#DC0032"/>
<path fill-rule="evenodd" clip-rule="evenodd" d="M1.4607 4.39941L1.22852 4.53387L2.05773 5.50866L2.68794 5.87841L1.4607 4.39941ZM4.97657 8.97084L8.06126 12.6347V12.265L5.63995 9.34059L4.97657 8.97084ZM9.62019 14.0465V14.4162L12.6717 18.0465L12.9039 17.912L9.62019 14.0465Z" fill="#DC0032"/>
<path fill-rule="evenodd" clip-rule="evenodd" d="M1.26148 4.49976L1.0293 4.63421L1.56 5.20564L2.22337 5.57539C2.1902 5.609 1.26148 4.49976 1.26148 4.49976ZM4.47884 8.70144L8.06105 12.9367V12.567L5.10904 9.07118L4.47884 8.70144ZM9.61998 14.3485V14.7182L12.5057 18.1132L12.7378 17.9787C12.7047 18.0124 9.61998 14.3485 9.61998 14.3485Z" fill="#DC0032"/>
<path fill-rule="evenodd" clip-rule="evenodd" d="M1.09644 4.60083L0.864258 4.73528L1.0301 4.97058L1.69347 5.34033C1.69347 5.30671 1.09644 4.60083 1.09644 4.60083ZM3.94894 8.39915L8.06186 13.2731V12.8697L4.61232 8.73528L3.94894 8.39915ZM9.62078 14.6513V15.021L12.3406 18.2479L12.5728 18.1134C12.5396 18.1134 9.62078 14.6513 9.62078 14.6513Z" fill="#DC0032"/>
<path fill-rule="evenodd" clip-rule="evenodd" d="M0.897323 4.70166L0.764648 4.76889L1.16267 5.00418L0.897323 4.70166ZM3.45131 8.09662L8.09492 13.5756V13.2059L4.11468 8.49998C4.08152 8.46637 3.45131 8.09662 3.45131 8.09662ZM9.62068 14.9538V15.3571L12.1747 18.3487L12.4069 18.2143L9.62068 14.9538Z" fill="#DC0032"/>
<path fill-rule="evenodd" clip-rule="evenodd" d="M2.95312 7.79419L8.09427 13.8782V13.5085L3.58333 8.16394L2.95312 7.79419ZM9.62003 15.29V15.6597L11.975 18.4496L12.2072 18.3152L9.62003 15.29Z" fill="#DC0032"/>
<path fill-rule="evenodd" clip-rule="evenodd" d="M2.42285 7.4917L8.06152 14.1808V13.7774L3.05306 7.86145L2.42285 7.4917ZM9.62045 15.5925V15.9623L11.8096 18.5505L12.0418 18.4161L9.62045 15.5925Z" fill="#DC0032"/>
<path fill-rule="evenodd" clip-rule="evenodd" d="M1.8916 7.18896L8.06097 14.4831V14.1133L2.55497 7.55871L1.8916 7.18896ZM9.6199 15.8948V16.2982L11.6432 18.6848L11.8754 18.5503C11.8422 18.5503 9.6199 15.8948 9.6199 15.8948Z" fill="#DC0032"/>
<path fill-rule="evenodd" clip-rule="evenodd" d="M1.39453 6.88647L8.0946 14.7856V14.4159L2.02474 7.28984L1.39453 6.88647ZM9.62036 16.1974V16.5671L11.4446 18.752L11.6768 18.6176L9.62036 16.1974Z" fill="#DB0032"/>
<path fill-rule="evenodd" clip-rule="evenodd" d="M0.864258 6.58423L8.06186 15.0884V14.7187L1.49446 6.98759L0.864258 6.58423ZM9.62079 16.5002V16.8699L11.2792 18.8531L11.5114 18.7187L9.62079 16.5002Z" fill="#DA0032"/>
<path fill-rule="evenodd" clip-rule="evenodd" d="M0.366211 6.31519L8.09451 15.4244V15.0547L0.996416 6.68493L0.366211 6.31519ZM9.62027 16.8026V17.2059L11.1129 18.9538L11.345 18.8194C11.3119 18.853 9.62027 16.8026 9.62027 16.8026Z" fill="#D90032"/>
<path fill-rule="evenodd" clip-rule="evenodd" d="M0.333008 6.28149V6.5504L8.06131 15.6933V15.3235L0.498851 6.38233L0.333008 6.28149ZM9.62024 17.1386V17.3739C9.62024 17.4075 9.58707 17.4412 9.58707 17.4748L10.947 19.0546L11.1792 18.9201C11.146 18.9538 9.62024 17.1386 9.62024 17.1386Z" fill="#D80032"/>
<path fill-rule="evenodd" clip-rule="evenodd" d="M0.333008 6.4834V6.88676L8.06131 16.0296V15.6599L0.333008 6.4834ZM9.58707 17.4414C9.5539 17.5086 9.52073 17.6095 9.45439 17.6095L9.42122 17.6431L10.748 19.1893L10.9801 19.0548C10.947 19.0548 9.58707 17.4414 9.58707 17.4414Z" fill="#D70032"/>
<path fill-rule="evenodd" clip-rule="evenodd" d="M0.333008 6.81934V7.18908L8.06131 16.3319V15.9622L0.333008 6.81934ZM9.45439 17.6093L9.22221 17.7437L10.549 19.2899L10.7811 19.1555L9.45439 17.6093Z" fill="#D60032"/>
<path fill-rule="evenodd" clip-rule="evenodd" d="M0.333008 7.12183V7.49157L8.06131 16.6344V16.2647L0.333008 7.12183ZM9.32172 17.7101L9.08954 17.8445L10.4163 19.3907L10.6485 19.2563L9.32172 17.7101Z" fill="#D50032"/>
<path fill-rule="evenodd" clip-rule="evenodd" d="M0.333008 7.42456V7.79431L8.06131 16.9708V16.601L0.333008 7.42456ZM9.1227 17.8111L8.99003 17.8783C8.95686 17.912 8.92369 17.912 8.85736 17.912L10.2173 19.4918L10.4495 19.3573L9.1227 17.8111Z" fill="#D40032"/>
<path fill-rule="evenodd" clip-rule="evenodd" d="M0.333008 7.72705V8.0968L8.06131 17.2397V16.8699L0.333008 7.72705ZM8.52567 17.8111L10.0514 19.5926L10.2836 19.4581L8.95686 17.9119C8.92369 17.9119 8.89052 17.9455 8.89052 17.9455H8.85736C8.79102 17.9455 8.75785 17.9119 8.72468 17.9119L8.52567 17.8111Z" fill="#D30032"/>
<path fill-rule="evenodd" clip-rule="evenodd" d="M0.333008 8.0293V8.43266L9.85242 19.6932L10.0846 19.5587L8.65834 17.878L8.22715 17.6427C8.16081 17.6091 8.09448 17.5083 8.09448 17.4074V17.2058L0.333008 8.0293Z" fill="#D20032"/>
<path fill-rule="evenodd" clip-rule="evenodd" d="M0.333008 8.36548V8.73523L9.68657 19.7941L9.91875 19.6596L0.333008 8.36548Z" fill="#D10032"/>
<path fill-rule="evenodd" clip-rule="evenodd" d="M0.333008 8.66821V9.03796L9.52073 19.8951L9.75291 19.7607L0.333008 8.66821Z" fill="#D00032"/>
<path fill-rule="evenodd" clip-rule="evenodd" d="M0.333008 8.97046V9.37382L9.35489 19.9957L9.58707 19.8612L0.333008 8.97046Z" fill="#CF0032"/>
<path fill-rule="evenodd" clip-rule="evenodd" d="M0.333008 9.30664V9.67639L9.15587 20.0966L9.38805 19.9621L0.333008 9.30664Z" fill="#CE0032"/>
<path fill-rule="evenodd" clip-rule="evenodd" d="M0.333008 9.60938V9.97912L8.95686 20.1976C9.0232 20.164 9.08954 20.164 9.1227 20.1304L9.18904 20.0968L0.333008 9.60938Z" fill="#CD0032"/>
<path fill-rule="evenodd" clip-rule="evenodd" d="M0.333008 9.91187V10.3152L8.72468 20.1976C8.75785 20.1976 8.79102 20.1976 8.85736 20.1976C8.92369 20.1976 8.99003 20.1976 9.0232 20.164L0.333008 9.91187Z" fill="#CC0032"/>
<path fill-rule="evenodd" clip-rule="evenodd" d="M0.333008 10.2141V10.5839L8.26032 19.9284L8.52567 20.0965C8.59201 20.1301 8.69151 20.1637 8.75785 20.1637L0.333008 10.2141Z" fill="#CB0032"/>
<path fill-rule="evenodd" clip-rule="evenodd" d="M0.333008 10.5168V10.9202L7.72962 19.6597L8.39299 20.0294L0.333008 10.5168Z" fill="#CA0032"/>
<path fill-rule="evenodd" clip-rule="evenodd" d="M0.333008 10.853V11.2228L7.23209 19.3572L7.89546 19.727L0.333008 10.853Z" fill="#C90032"/>
<path fill-rule="evenodd" clip-rule="evenodd" d="M0.333008 11.1553V11.525L6.70139 19.0544L7.3316 19.4242L0.333008 11.1553Z" fill="#C80033"/>
<path fill-rule="evenodd" clip-rule="evenodd" d="M0.333008 11.4583V11.828L6.17069 18.7524L6.8009 19.1221L0.333008 11.4583Z" fill="#C70033"/>
<path fill-rule="evenodd" clip-rule="evenodd" d="M0.333008 11.7605V12.1302L5.63999 18.416L6.30337 18.7857L0.333008 11.7605Z" fill="#C60033"/>
<path fill-rule="evenodd" clip-rule="evenodd" d="M0.333008 12.063V12.4327L5.14246 18.1134L5.80584 18.4832L0.333008 12.063Z" fill="#C50033"/>
<path fill-rule="evenodd" clip-rule="evenodd" d="M0.333008 12.3657V12.7355L4.61177 17.8111L5.27514 18.1808C5.27514 18.2145 0.333008 12.3657 0.333008 12.3657Z" fill="#C40033"/>
<path fill-rule="evenodd" clip-rule="evenodd" d="M0.333008 12.7017V13.0714L4.08107 17.5084L4.74444 17.8781L0.333008 12.7017Z" fill="#C30033"/>
<path fill-rule="evenodd" clip-rule="evenodd" d="M0.333008 13.0042V13.3739L3.58354 17.2058L4.24691 17.5756L0.333008 13.0042Z" fill="#C20033"/>
<path fill-rule="evenodd" clip-rule="evenodd" d="M0.333008 13.3069V13.7102L3.05284 16.9035L3.68304 17.2733L0.333008 13.3069Z" fill="#C10033"/>
<path fill-rule="evenodd" clip-rule="evenodd" d="M0.333008 13.6431V14.0128L2.52214 16.6011L3.18551 16.9708L0.333008 13.6431Z" fill="#C00033"/>
<path fill-rule="evenodd" clip-rule="evenodd" d="M0.333008 13.9453V14.3151L1.99144 16.2983L2.65481 16.668L0.333008 13.9453Z" fill="#BF0033"/>
<path fill-rule="evenodd" clip-rule="evenodd" d="M0.333008 14.2478V14.6512L1.49391 15.9957L2.15728 16.3654L0.333008 14.2478Z" fill="#BE0033"/>
<path fill-rule="evenodd" clip-rule="evenodd" d="M0.333008 14.5505V14.9539L0.963212 15.6934L1.62659 16.0631L0.333008 14.5505Z" fill="#BD0033"/>
<path fill-rule="evenodd" clip-rule="evenodd" d="M0.333008 14.8528V14.9536C0.333008 15.1553 0.465682 15.3906 0.631526 15.4914L1.09589 15.7603L0.333008 14.8528Z" fill="#BC0033"/>
<path fill-rule="evenodd" clip-rule="evenodd" d="M0.46582 15.3237C0.498989 15.3573 0.532158 15.391 0.565326 15.4246L0.46582 15.3237Z" fill="#BB0033"/>
</g>
<defs>
<clipPath id="clip0">
<rect width="47" height="20" fill="white" transform="translate(0.333008 0.5)"/>
</clipPath>
</defs>
</svg>
