<svg width="41" height="13" viewBox="0 0 41 13" fill="none" xmlns="http://www.w3.org/2000/svg">
<path d="M34.153 4.55664L35.7879 6.49782L37.4228 4.55664H40.8617L37.4791 8.55664L40.9181 12.4978H37.31L35.6751 10.5566L34.0402 12.4978H30.5449L33.9275 8.55664L30.5449 4.55664H34.153Z" fill="#FF5900"/>
<path d="M30.5449 4.55651V7.26239H26.7114V9.73298H30.5449V12.4977H23.8926V0.0270996H30.5449V2.79181H26.7114V4.55651H30.5449Z" fill="#FF5900"/>
<path d="M21.0735 0.0270996V5.14475H21.0171C20.3969 4.38004 19.6077 4.14475 18.7057 4.14475C16.8453 4.14475 15.4923 5.43887 14.9849 7.20357C14.4211 5.32122 13.0117 4.14475 10.8694 4.14475C9.12178 4.14475 7.76876 4.96828 7.03587 6.26239V4.55651H3.54057V2.79181H7.4305V0.0270996H0.327148V12.5565H3.54057V7.32122H6.69762C6.58487 7.73298 6.52849 8.14475 6.52849 8.55651C6.52849 11.1447 8.44527 13.0271 10.8694 13.0271C12.899 13.0271 14.252 12.0271 14.9849 10.2036H12.2788C11.8842 10.733 11.6023 10.9095 10.8694 10.9095C10.0238 10.9095 9.29091 10.1447 9.29091 9.20357H14.8721C15.0976 11.2624 16.6761 13.0859 18.762 13.0859C19.6641 13.0859 20.5097 12.6153 21.0171 11.8506H21.0735V12.6742H23.8923V0.0270996H21.0735ZM9.40366 7.32122C9.57279 6.49769 10.1929 6.0271 10.9258 6.0271C11.7151 6.0271 12.2788 6.55651 12.448 7.32122C12.5043 7.32122 9.40366 7.32122 9.40366 7.32122ZM19.3822 10.6153C18.3674 10.6153 17.6909 9.61534 17.6909 8.55651C17.6909 7.43886 18.2547 6.38004 19.3822 6.38004C20.5661 6.38004 21.0171 7.43886 21.0171 8.55651C21.0171 9.61534 20.5097 10.6153 19.3822 10.6153Z" fill="#2A007C"/>
</svg>
