<svg width="39" height="23" viewBox="0 0 39 23" fill="none" xmlns="http://www.w3.org/2000/svg">
<path fill-rule="evenodd" clip-rule="evenodd" d="M20.3799 14.6946H19.3257V11.6599C19.3257 11.021 19.0382 10.6696 18.5271 10.6376C18.2077 10.6057 17.6966 10.7015 17.3452 10.7654V14.6946H16.291V10.0626C16.291 10.0626 17.5688 9.77515 18.7507 9.77515C19.2618 9.77515 19.6452 9.96681 19.9646 10.2543C20.2521 10.5418 20.4118 10.9571 20.4118 11.5001V14.6946H20.3799Z" fill="#424143"/>
<path fill-rule="evenodd" clip-rule="evenodd" d="M38.2367 14.7266C38.077 14.7586 37.8853 14.7905 37.6936 14.7905C37.0867 14.7905 36.7034 14.6627 36.5117 14.4072C36.352 14.2155 36.2881 13.8002 36.2881 13.2252V8.40161H37.3423V9.77522H38.2686V10.6377H37.3423V13.1933C37.3423 13.4808 37.3742 13.6405 37.4381 13.7363C37.5339 13.8641 37.6936 13.8961 37.9811 13.8961C38.045 13.8961 38.1409 13.8961 38.2367 13.8641V14.7266Z" fill="#424143"/>
<path fill-rule="evenodd" clip-rule="evenodd" d="M5.52611 11.5636C5.52611 11.5636 4.28027 12.0428 2.74694 12.0428C1.21361 12.0428 -0.0322266 11.5636 -0.0322266 11.5636C-0.0322266 11.5636 1.21361 11.0845 2.74694 11.0845C4.31222 11.0845 5.52611 11.5636 5.52611 11.5636Z" fill="#FFCB04"/>
<mask id="mask0" mask-type="alpha" maskUnits="userSpaceOnUse" x="6" y="0" width="4" height="5">
<path fill-rule="evenodd" clip-rule="evenodd" d="M6.25977 0.0825195H9.35838V4.55474H6.25977V0.0825195Z" fill="white"/>
</mask>
<g mask="url(#mask0)">
<path fill-rule="evenodd" clip-rule="evenodd" d="M9.35838 4.55474C9.35838 4.55474 8.27227 3.82002 7.40977 2.57419C6.54727 1.3603 6.25977 0.0825195 6.25977 0.0825195C6.25977 0.0825195 7.34588 0.817242 8.20838 2.06307C9.07088 3.27696 9.35838 4.55474 9.35838 4.55474Z" fill="#FFCB04"/>
</g>
<path fill-rule="evenodd" clip-rule="evenodd" d="M6.54863 7.57097C6.54863 7.57097 5.23891 7.41125 3.8653 6.74042C2.52363 6.03764 1.66113 5.04736 1.66113 5.04736C1.66113 5.04736 2.97086 5.20709 4.34447 5.87792C5.68613 6.5807 6.54863 7.57097 6.54863 7.57097Z" fill="#FFCB04"/>
<path fill-rule="evenodd" clip-rule="evenodd" d="M9.23205 13.8321C10.0307 13.8321 10.9571 13.2251 10.9571 13.2251C10.9571 13.2251 8.75289 12.5543 8.91261 10.6057C9.35983 7.37928 11.9793 4.85567 15.2376 4.47234C14.8862 4.44039 14.5348 4.40845 14.1834 4.40845C10.1265 4.44039 6.86816 7.63484 6.86816 11.5959C6.90011 15.5571 10.1904 18.7196 14.2473 18.7196C14.5987 18.7196 14.9182 18.6876 15.2376 18.6557C12.3626 18.3043 10.0307 16.3237 9.16816 13.7043" fill="#FFCB04"/>
<mask id="mask1" mask-type="alpha" maskUnits="userSpaceOnUse" x="6" y="18" width="4" height="6">
<path fill-rule="evenodd" clip-rule="evenodd" d="M6.25977 18.5293H9.35838V23.0015H6.25977V18.5293Z" fill="white"/>
</mask>
<g mask="url(#mask1)">
<path fill-rule="evenodd" clip-rule="evenodd" d="M9.35838 18.5293C9.35838 18.5293 8.27227 19.264 7.40977 20.5099C6.54727 21.7557 6.25977 23.0015 6.25977 23.0015C6.25977 23.0015 7.37782 22.2668 8.20838 21.021C9.07088 19.8071 9.35838 18.5293 9.35838 18.5293Z" fill="#FFCB04"/>
</g>
<path fill-rule="evenodd" clip-rule="evenodd" d="M6.54863 15.4929C6.54863 15.4929 5.23891 15.6526 3.8653 16.3235C2.52363 17.0263 1.66113 18.0165 1.66113 18.0165C1.66113 18.0165 2.97086 17.8568 4.34447 17.186C5.68613 16.4832 6.54863 15.4929 6.54863 15.4929Z" fill="#FFCB04"/>
<mask id="mask2" mask-type="alpha" maskUnits="userSpaceOnUse" x="0" y="0" width="39" height="24">
<path fill-rule="evenodd" clip-rule="evenodd" d="M0 23.0001H38.2694V0.0959473H0V23.0001Z" fill="white"/>
</mask>
<g mask="url(#mask2)">
<path fill-rule="evenodd" clip-rule="evenodd" d="M14.1514 14.6944H15.2375V8.36938H14.1514V14.6944Z" fill="#424143"/>
</g>
<mask id="mask3" mask-type="alpha" maskUnits="userSpaceOnUse" x="0" y="0" width="39" height="24">
<path fill-rule="evenodd" clip-rule="evenodd" d="M0 23.0001H38.2694V0.0959473H0V23.0001Z" fill="white"/>
</mask>
<g mask="url(#mask3)">
<path fill-rule="evenodd" clip-rule="evenodd" d="M24.9804 10.5416C24.9804 9.77494 24.5971 9.39161 23.8623 9.39161H22.5207V11.6597H23.8304C24.1818 11.6597 24.4693 11.5638 24.6929 11.3722C24.8846 11.1805 24.9804 10.893 24.9804 10.5416ZM26.0665 10.5416C26.0665 11.1805 25.8748 11.7236 25.4596 12.1069C25.0443 12.4902 24.5012 12.6819 23.8304 12.6819H22.5207V14.6944H21.4346V8.36938H23.7346C24.4693 8.36938 25.0443 8.56105 25.4596 8.94438C25.8748 9.32772 26.0665 9.87077 26.0665 10.5416Z" fill="#424143"/>
</g>
<mask id="mask4" mask-type="alpha" maskUnits="userSpaceOnUse" x="0" y="0" width="39" height="24">
<path fill-rule="evenodd" clip-rule="evenodd" d="M0 23.0001H38.2694V0.0959473H0V23.0001Z" fill="white"/>
</mask>
<g mask="url(#mask4)">
<path fill-rule="evenodd" clip-rule="evenodd" d="M29.9641 12.2028C29.9641 11.7236 29.8682 11.3403 29.6446 11.0848C29.421 10.7973 29.1335 10.6695 28.7502 10.6695C28.3988 10.6695 28.0794 10.7973 27.8557 11.0848C27.6321 11.3723 27.5363 11.7556 27.5363 12.2028C27.5363 12.682 27.6321 13.0653 27.8557 13.3209C28.0794 13.6084 28.3669 13.7361 28.7502 13.7361C29.1335 13.7361 29.421 13.6084 29.6446 13.3209C29.8682 13.0653 29.9641 12.682 29.9641 12.2028ZM31.0502 12.2028C31.0502 12.9695 30.8266 13.5764 30.4113 14.0556C29.996 14.5348 29.421 14.7584 28.7502 14.7584C28.0794 14.7584 27.5044 14.5348 27.0891 14.0556C26.6738 13.5764 26.4502 12.9695 26.4502 12.2028C26.4502 11.4361 26.6738 10.8292 27.0891 10.382C27.5044 9.93476 28.0794 9.6792 28.7502 9.6792C29.453 9.6792 29.996 9.90281 30.4113 10.382C30.8585 10.8292 31.0502 11.4361 31.0502 12.2028Z" fill="#424143"/>
</g>
<mask id="mask5" mask-type="alpha" maskUnits="userSpaceOnUse" x="0" y="0" width="39" height="24">
<path fill-rule="evenodd" clip-rule="evenodd" d="M0 23.0001H38.2694V0.0959473H0V23.0001Z" fill="white"/>
</mask>
<g mask="url(#mask5)">
<path fill-rule="evenodd" clip-rule="evenodd" d="M35.65 13.065C35.65 13.5442 35.4583 13.9275 35.075 14.247C34.6916 14.5664 34.2125 14.6942 33.6055 14.6942C32.6472 14.6942 31.9125 14.4067 31.4014 13.8317L32.2 13.1609C32.6153 13.5442 33.0625 13.7359 33.6055 13.7359C33.893 13.7359 34.1486 13.672 34.3083 13.5761C34.468 13.4484 34.5639 13.3206 34.5639 13.1289C34.5639 12.9372 34.468 12.7775 34.2764 12.7136C34.1486 12.6817 33.8611 12.6178 33.35 12.522C32.743 12.4261 32.2958 12.2984 32.0403 12.1386C31.7528 11.915 31.593 11.5956 31.593 11.1803C31.593 10.7331 31.7847 10.3817 32.1361 10.0942C32.5194 9.80669 32.9986 9.64697 33.6055 9.64697C34.3403 9.64697 34.9791 9.90253 35.4903 10.3817L34.8514 11.0525C34.468 10.7331 34.0528 10.5414 33.5416 10.5414C32.9347 10.5414 32.6153 10.7011 32.6153 11.0525C32.6153 11.2442 32.743 11.4039 33.0305 11.4678C33.4458 11.5317 33.8291 11.5956 34.2125 11.6595C35.2028 11.8831 35.65 12.3303 35.65 13.065Z" fill="#424143"/>
</g>
</svg>
