<svg width="25" height="16" viewBox="0 0 25 16" fill="none" xmlns="http://www.w3.org/2000/svg">
<path d="M15.8798 1.79761H9.12012V14.2099H15.8798V1.79761Z" fill="#FF5F00"/>
<path d="M9.54919 8.0259C9.54919 5.61362 10.6436 3.31099 12.5106 1.81976C9.14146 -0.877611 4.29168 -0.285506 1.65219 3.13555C-0.987291 6.5566 -0.407892 11.5347 2.96121 14.2101C5.77236 16.4689 9.6994 16.4689 12.5106 14.2101C10.6436 12.7189 9.54919 10.4382 9.54919 8.0259Z" fill="#EB001B"/>
<path d="M25 8.0259C25 12.3899 21.5451 15.9206 17.2747 15.9206C15.5365 15.9206 13.8627 15.3285 12.5107 14.232C15.8584 11.5347 16.4378 6.57853 13.8198 3.15748C13.4335 2.65309 13.0043 2.21449 12.5107 1.81976C15.8584 -0.877611 20.7082 -0.285506 23.3476 3.13555C24.4206 4.51713 25 6.24958 25 8.0259Z" fill="#F79E1B"/>
<path d="M24.2703 12.9161V12.653H24.3776V12.6091H24.1201V12.653H24.2274V12.9161H24.2703ZM24.7639 12.9161V12.6091H24.6781L24.5922 12.8284L24.5064 12.6091H24.442V12.9161H24.5064V12.6969L24.5922 12.8942H24.6566L24.7424 12.6969V12.9381L24.7639 12.9161Z" fill="#F79E1B"/>
</svg>
