<svg width="47" height="16" viewBox="0 0 47 16" fill="none" xmlns="http://www.w3.org/2000/svg">
<path fill-rule="evenodd" clip-rule="evenodd" d="M10.0259 9.16467L13.8545 9.15991L13.7149 10.0075L10.5131 12.9813L13.2009 12.9766L13.0442 13.8909L9.08594 13.8932L9.2524 12.948L12.3221 10.0885H9.87172L10.0259 9.16467Z" fill="#D13239"/>
<path fill-rule="evenodd" clip-rule="evenodd" d="M5.83794 7.71426C5.75471 7.62855 5.63476 7.56188 5.50258 7.5095C5.36304 7.45712 5.20883 7.41903 5.05705 7.39284C4.86612 7.3595 4.68008 7.34522 4.54789 7.34045C4.42549 7.33569 4.34716 7.33569 4.34716 7.33569H2.67279H1.4268L0.310547 13.8928H1.35336L1.76461 11.4643L3.78659 11.4738C3.78659 11.4738 4.57482 11.5047 5.13294 11.2166C5.69106 10.9286 5.84039 10.2738 5.84039 10.2738C5.84039 10.2738 5.90159 10.0309 5.95299 9.73569C6.00929 9.4095 6.0656 9.01903 6.09497 8.81188C6.10721 8.72141 6.11455 8.66427 6.11455 8.66427C6.11455 8.66427 6.12924 8.5976 6.12924 8.49284C6.13169 8.3476 6.10966 8.12855 5.99216 7.91903C5.95054 7.84522 5.90159 7.77855 5.83794 7.71426ZM5.03502 8.87141C5.03502 8.88331 4.942 9.4095 4.81961 10.0333C4.7731 10.2714 4.58461 10.4 4.36919 10.4452C4.0118 10.519 3.62747 10.5047 3.62747 10.5047L1.93841 10.5L2.31049 8.32141L3.84044 8.32617C3.84044 8.32617 3.94325 8.32379 4.08768 8.32617C4.25169 8.32855 4.46956 8.33569 4.64825 8.3595C4.80247 8.37855 4.92487 8.4095 4.96403 8.45712C5.01544 8.51903 5.03502 8.59998 5.04237 8.67141C5.05216 8.77617 5.03502 8.86427 5.03502 8.87141Z" fill="#D13239"/>
<path fill-rule="evenodd" clip-rule="evenodd" d="M19.0469 7.33569H20.0506L18.927 13.8928L17.9209 13.8905L19.0469 7.33569Z" fill="#D13239"/>
<path fill-rule="evenodd" clip-rule="evenodd" d="M24.4033 9.16437L25.3654 9.16199L25.7056 12.4906L27.1866 9.15723L28.3738 9.15961L28.7239 12.5025L30.2024 9.16199H31.2012L29.0813 13.8882H27.8965L27.5538 10.5787L26.0581 13.8882L24.8929 13.8929L24.4033 9.16437Z" fill="#D13239"/>
<path d="M17.1939 9.20242C16.9124 9.11433 16.4253 9.09528 16.0116 9.10004C15.6126 9.1048 15.429 9.12385 15.2797 9.1548C15.2797 9.1548 14.5698 9.2548 14.1659 9.74051C13.7619 10.2262 13.642 11.2881 13.642 11.2881C13.642 11.2881 13.4021 12.4619 13.4731 12.8548C13.5441 13.2453 13.6689 13.6096 14.1242 13.7786C14.5796 13.95 14.9663 13.9405 14.9663 13.9405C14.9663 13.9405 15.779 14.0024 16.391 13.8619C17.003 13.7215 17.3261 13.3024 17.3261 13.3024C17.3261 13.3024 17.4705 13.1215 17.5734 12.9072C17.6762 12.6929 17.708 12.5429 17.7129 12.5238L17.7765 12.2691L16.7362 12.2715C16.7362 12.2715 16.6799 12.9405 16.1168 13.0024C15.5563 13.0643 15.2552 13.0405 15.145 13.0357C15.0373 13.031 14.4351 13.0572 14.4841 12.5667C14.4841 12.5596 14.4841 12.55 14.4865 12.5357C14.5135 11.9786 14.5771 11.8334 14.5771 11.8334L17.8451 11.8238L17.9846 11.0381C18.1462 10.1477 18.0311 9.46909 17.1939 9.20242ZM16.9761 10.9262L14.7362 10.9238L14.8243 10.5786C14.8243 10.5786 14.9027 10.3072 15.0569 10.1929C15.2136 10.0786 15.4118 10.0572 15.5979 10.0405C15.7839 10.0238 16.2809 9.98813 16.6848 10.0691C16.8194 10.0953 16.9467 10.1691 16.981 10.2786C17.0593 10.5358 16.9761 10.9262 16.9761 10.9262Z" fill="#D13239"/>
<path d="M14.4914 12.5452C14.4914 12.5524 14.489 12.5595 14.489 12.5667C14.4865 12.6048 14.4914 12.5429 14.4914 12.5452Z" fill="#D13239"/>
<path d="M20.6548 12.5479C20.6548 12.5551 20.6523 12.5622 20.6523 12.5693C20.6523 12.6074 20.6548 12.5455 20.6548 12.5479Z" fill="#D13239"/>
<path d="M23.3599 9.20486C23.0784 9.11677 22.5913 9.09772 22.1776 9.10248C21.7786 9.10724 21.595 9.12629 21.4457 9.15724C21.4457 9.15724 20.7358 9.25724 20.3319 9.74296C19.928 10.2287 19.808 11.2906 19.808 11.2906C19.808 11.2906 19.5681 12.4644 19.6391 12.8572C19.7101 13.2477 19.8349 13.612 20.2903 13.7811C20.7456 13.9525 21.1323 13.943 21.1323 13.943C21.1323 13.943 21.945 14.0049 22.557 13.8644C23.169 13.7239 23.4921 13.3049 23.4921 13.3049C23.4921 13.3049 23.6366 13.1239 23.7394 12.9096C23.8422 12.6953 23.874 12.5453 23.8789 12.5263L23.9425 12.2715L22.9022 12.2739C22.9022 12.2739 22.8459 12.943 22.2829 13.0049C21.7223 13.0668 21.4212 13.043 21.311 13.0406C21.2033 13.0358 20.6011 13.0596 20.6501 12.5715C20.6501 12.5644 20.6501 12.5549 20.6525 12.5406C20.6795 11.9834 20.7431 11.8382 20.7431 11.8382L24.0111 11.8287L24.1506 11.043C24.3122 10.1501 24.1971 9.46915 23.3599 9.20486ZM23.1323 10.9263L20.8924 10.9239L20.9806 10.5787C20.9806 10.5787 21.0589 10.3072 21.2131 10.193C21.3673 10.0787 21.5681 10.0572 21.7541 10.0406C21.9402 10.0239 22.4371 9.9882 22.841 10.0691C22.9756 10.0953 23.1029 10.1691 23.1372 10.2787C23.2155 10.5334 23.1323 10.9263 23.1323 10.9263Z" fill="#D13239"/>
<path fill-rule="evenodd" clip-rule="evenodd" d="M32.3559 9.16425L32.9997 12.6214L34.8185 9.16187L35.8417 9.17139L33.22 14.1119C33.22 14.1119 32.7451 15.0071 32.4513 15.2333C32.1576 15.4595 31.9764 15.5619 31.7365 15.5857C31.4966 15.6095 31.3987 15.6262 31.1686 15.5857L30.9238 15.5428L31.0756 14.6595C31.0756 14.6595 31.482 14.7333 31.7218 14.6404C31.9642 14.5476 32.1576 14.1476 32.1576 14.1476L32.28 13.9476L31.3326 9.16187L32.3559 9.16425Z" fill="#D13239"/>
<path fill-rule="evenodd" clip-rule="evenodd" d="M36.2139 9.63351L37.2689 9.63589L37.3326 9.23827C37.3326 9.23827 37.4452 8.51923 37.6973 8.38113C37.7781 8.33589 37.9078 8.29542 38.0571 8.26923C38.3338 8.22161 38.6838 8.21685 38.9702 8.22637C39.4084 8.24065 39.5749 8.24542 40.0204 8.29542C40.4659 8.34542 40.3533 8.76446 40.3533 8.76446L40.2652 9.39066C40.2652 9.39066 40.226 9.67161 40.1232 9.84542C40.0326 10.0002 39.7829 10.1049 39.6385 10.1502C39.2909 10.2597 38.1012 10.5549 38.1012 10.5549L37.1661 10.8168C37.1661 10.8168 36.5908 10.9788 36.2702 11.324C35.947 11.6716 35.8197 12.0645 35.7757 12.2692C35.7316 12.474 35.4844 13.8907 35.4844 13.8907L40.532 13.893L40.7009 12.9121L36.7083 12.9168L36.7793 12.5168C36.7793 12.5168 36.8258 12.1049 36.9972 11.9692C37.051 11.9264 37.078 11.8692 37.3962 11.7597C37.5871 11.693 38.2383 11.524 38.2383 11.524L39.7438 11.124C39.7438 11.124 40.5663 10.9192 40.8894 10.4811C41.2125 10.0454 41.3374 9.2097 41.3374 9.2097C41.3374 9.2097 41.4255 8.3978 41.3569 8.14304C41.2908 7.88827 41.0436 7.58351 40.7425 7.45256C40.4414 7.32161 40.1281 7.24542 39.2199 7.25732C38.3117 7.26923 37.8613 7.3097 37.4011 7.47637C36.9409 7.64065 36.6741 7.94065 36.5052 8.36446C36.3216 8.76684 36.2139 9.63351 36.2139 9.63351Z" fill="#B3B2B1"/>
<path fill-rule="evenodd" clip-rule="evenodd" d="M45.7169 11.4571L46.4243 7.33325H45.171L41.269 11.4094L41.0928 12.4428H44.5052L44.2555 13.8904L45.3032 13.8928L45.5504 12.4428L46.5174 12.4452L46.6912 11.4571H45.7169ZM44.6741 11.4594L42.4685 11.4571L45.1539 8.67373L44.6741 11.4594Z" fill="#B3B2B1"/>
<path fill-rule="evenodd" clip-rule="evenodd" d="M8.05078 7.87639H11.2649C11.2649 7.87639 11.9846 7.30972 12.4962 6.94544C13.0078 6.58115 13.938 6.00734 13.938 6.00734L12.1217 5.18115C12.1217 5.18115 10.5868 6.10496 9.93568 6.54068C9.30411 6.94306 8.05078 7.87639 8.05078 7.87639Z" fill="#B3B2B1"/>
<path fill-rule="evenodd" clip-rule="evenodd" d="M14.9586 5.42411L13.4678 4.44792C13.4678 4.44792 14.8166 3.70268 16.6109 3.00744C18.4028 2.3122 19.3599 2.02173 19.3599 2.02173L19.6634 3.40506C19.6634 3.40506 17.9377 3.96697 16.9487 4.42173C15.9255 4.84554 14.9586 5.42411 14.9586 5.42411Z" fill="#B3B2B1"/>
<path fill-rule="evenodd" clip-rule="evenodd" d="M20.7653 3.10245L20.5059 1.68579C20.5059 1.68579 22.3467 1.2096 24.0309 0.904834C25.7175 0.600072 27.9524 0.454834 27.9524 0.454834L27.2132 2.64293C27.2132 2.64293 25.2475 2.38102 23.4017 2.62626C21.9648 2.79293 20.7653 3.10245 20.7653 3.10245Z" fill="#B3B2B1"/>
<path fill-rule="evenodd" clip-rule="evenodd" d="M28.3838 2.82869L29.6273 0.397742C29.6273 0.397742 32.3519 0.345361 34.7019 0.700123C37.0519 1.0525 39.2011 1.59536 39.1546 1.61917L33.1964 4.65012C33.1964 4.65012 31.8035 3.79298 30.0753 3.26679C29.0961 2.98584 28.3838 2.82869 28.3838 2.82869Z" fill="#B3B2B1"/>
<path fill-rule="evenodd" clip-rule="evenodd" d="M34.2627 5.30977L35.5723 6.27643H46.3358C46.3358 6.27643 46.3138 5.93834 46.0274 5.45739C45.8487 5.15739 45.5231 4.83834 45.1829 4.50739C45.058 4.38834 44.5635 4.01215 44.1915 3.77643C43.2417 3.17643 42.7105 2.94548 41.724 2.50977L34.2627 5.30977Z" fill="#B3B2B1"/>
<path d="M8.74816 9.15991C8.34426 9.15991 7.96238 9.31467 7.63681 9.48848L7.69311 9.15991H6.62337L5.7666 13.8671H6.83879L7.31368 11.2599C7.4116 10.7313 7.81796 10.0766 8.61108 10.0766L9.16431 10.0742L9.33077 9.15991H8.74816Z" fill="#D13239"/>
</svg>
