<svg width="45" height="16" viewBox="0 0 45 16" fill="none" xmlns="http://www.w3.org/2000/svg">
<path d="M23.2734 5.27086C23.2559 7.34917 25.084 8.5058 26.4551 9.21062C27.8789 9.91544 28.3535 10.3672 28.3359 10.9998C28.3184 11.9757 27.2109 12.3913 26.1562 12.4094C24.3281 12.4456 23.2734 11.9034 22.4297 11.4877L21.7793 14.6504C22.623 15.048 24.1875 15.4094 25.8223 15.4094C29.6367 15.4094 32.1328 13.4757 32.1504 10.4576C32.168 6.64435 27.0176 6.42748 27.0527 4.72869C27.0703 4.20459 27.5449 3.66242 28.5996 3.51785C29.127 3.44556 30.5508 3.39134 32.1855 4.16845L32.8184 1.09616C31.9395 0.770858 30.8145 0.445557 29.4082 0.445557C25.8223 0.499774 23.291 2.46965 23.2734 5.27086ZM38.9531 0.770858C38.25 0.770858 37.6699 1.18652 37.4062 1.83712L31.957 15.2287H35.7715L36.5273 13.0781H41.1855L41.625 15.2287H45L42.0645 0.770858H38.9531ZM39.498 4.67447L40.6055 10.0962H37.582L39.498 4.67447ZM18.6504 0.770858L15.6445 15.2106H19.2832L22.2891 0.752786H18.6504V0.770858ZM13.2715 0.770858L9.47461 10.6022L7.94531 2.23471C7.76953 1.29495 7.04883 0.770858 6.27539 0.770858H0.0878906L0 1.18652C1.26562 1.47568 2.70703 1.92748 3.58594 2.41544C4.11328 2.72267 4.27148 2.97568 4.44727 3.6805L7.34766 15.2106H11.1973L17.0859 0.752786H13.2715" fill="url(#paint0_linear)"/>
<defs>
<linearGradient id="paint0_linear" x1="20.5068" y1="15.7319" x2="20.9512" y2="0.388423" gradientUnits="userSpaceOnUse">
<stop stop-color="#222357"/>
<stop offset="1" stop-color="#254AA5"/>
</linearGradient>
</defs>
</svg>
